<?xml version="1.0" encoding="utf-8"?>
<!-- Generator: Adobe Illustrator 16.0.0, SVG Export Plug-In . SVG Version: 6.00 Build 0)  -->
<!DOCTYPE svg PUBLIC "-//W3C//DTD SVG 1.1//EN" "http://www.w3.org/Graphics/SVG/1.1/DTD/svg11.dtd">
<svg version="1.1" id="Layer_1" xmlns="http://www.w3.org/2000/svg" xmlns:xlink="http://www.w3.org/1999/xlink" x="0px" y="0px"
	 width="1200px" height="646px" viewBox="0 0 1200 646" enable-background="new 0 0 1200 646" xml:space="preserve">
<g>
	<path fill="#005FA6" d="M419.284,614.989c9.56-9.813,15.404-22.76,19.004-36.591c3.346-12.854,5.694-26.891,6.13-40.18
		c3.494-106.863-38.912-211.882-143.487-254.413c-73.977-30.092-178.252-14.316-211.267,66.055
		c-26.999,65.722-17.512,142.192,26.057,198.334c46.842,60.338,117.231,93.642,193.251,95.014
		c29.971,0.543,60.88-0.928,88.652-13.367C405.594,626.271,413.162,621.266,419.284,614.989z"/>
	<g>
		<path fill="#F7991C" d="M647.632,400.551c3.142-3.89,5.624-7.908,7.431-12.063c1.789-4.147,2.701-7.676,2.695-10.561
			c0-3.614-1.636-5.417-4.875-5.417c-3.79,0.008-7.496,1.545-11.099,4.618c-3.617,3.073-6.808,6.774-9.61,11.102
			c-2.794,4.344-5.1,8.955-6.895,13.822c-1.802,4.896-2.7,9.041-2.693,12.466c4.87,0,9.477-1.355,13.809-4.06
			C640.721,407.728,644.469,404.438,647.632,400.551z"/>
		<path fill="#F7991C" d="M1097.61,141.427C1041.156,3.996,862.853-22.977,736.368,28.474
			C557.54,101.206,485.04,280.784,491.009,463.499c0.743,22.733,4.761,46.731,10.483,68.71c6.157,23.652,16.145,45.793,32.5,62.57
			c10.467,10.732,23.402,19.292,37.036,25.396c47.485,21.266,100.335,23.78,151.584,22.854
			c129.989-2.352,250.345-59.282,330.447-162.48C1127.561,384.572,1143.774,253.805,1097.61,141.427z M1064.994,429.165
			c-0.275,0.634-0.583,1.305-0.948,2.026c-0.364,0.729-0.718,1.536-1.073,2.429c-3.971,6.346-8.393,11.936-13.261,16.828
			c-4.156,4.147-9.071,7.942-14.75,11.376c-5.684,3.435-11.874,5.16-18.554,5.16c-10.284,0.01-18.6-2.646-24.91-7.959
			c-6.336-5.323-9.5-11.779-9.51-19.359c0-5.599,0.713-10.974,2.157-16.115c1.437-5.151,3.017-10.166,4.72-15.043
			c1.709-4.868,3.295-9.514,4.735-13.942c1.439-4.431,2.156-8.724,2.156-12.87c0-1.261-0.546-2.3-1.632-3.115
			c-1.081-0.816-2.348-1.211-3.79-1.221c-4.156,0.01-8.62,1.959-13.406,5.839c-4.772,3.89-9.29,9.487-13.522,16.803
			c-4.236,7.322-7.748,16.174-10.539,26.554c-2.794,10.389-4.176,22.065-4.166,35.09c0,2.334-0.498,3.819-1.483,4.455
			c-0.995,0.627-2.485,0.953-4.473,0.953c-7.221,0-13.272-1.391-18.15-4.181c-4.879-2.79-7.318-6.361-7.318-10.698
			c0-0.55,0.035-1.116,0.044-1.675c-0.019,0.019-0.031,0.035-0.044,0.053c-4.147,4.163-9.062,7.949-14.745,11.393
			c-5.693,3.427-11.87,5.159-18.553,5.159c-5.236,0.009-9.935-0.72-14.085-2.154c-4.161-1.434-7.766-3.383-10.841-5.813
			c-3.077-2.438-5.416-5.279-7.052-8.525c-1.623-3.244-2.435-6.766-2.438-10.559c-0.006-5.959,0.892-11.558,2.69-16.794
			c1.8-5.238,3.73-10.02,5.812-14.364c2.069-4.334,4.012-8.165,5.805-11.514c1.804-3.339,2.71-6.096,2.71-8.259
			c0-1.45-0.864-2.532-2.582-3.246c-1.716-0.72-3.566-1.348-5.549-1.896c-2.35-0.532-5.057-0.979-8.126-1.348
			c-5.229,13.187-10.184,23.979-14.875,32.376c-4.672,8.38-8.448,14.646-11.328,18.794c-0.005,0.016-0.01,0.025-0.017,0.042
			c-3.972,6.328-8.395,11.926-13.261,16.803c-4.156,4.163-9.063,7.949-14.751,11.385c-5.688,3.433-11.87,5.159-18.543,5.167
			c-7.581,0-14.004-1.932-19.242-5.803c-5.235-3.882-8.314-9.608-9.216-17.197c-3.614,4.524-7.491,8.404-11.638,11.667
			c-3.613,2.894-7.669,5.504-12.182,7.856s-9.389,3.529-14.624,3.529c-3.608,0-7.084-0.671-10.427-2.019s-6.244-3.288-8.669-5.812
			c-2.442-2.534-4.388-5.505-5.839-8.929c-0.445-1.066-0.803-2.173-1.112-3.313c-1.292,1.234-2.626,2.429-4.035,3.587
			c-5.049,4.156-11.314,7.95-18.806,11.386c-7.491,3.434-16.382,5.159-26.67,5.167c-6.86,0-13.188-0.979-18.972-2.954
			c-5.776-1.98-10.74-4.738-14.895-8.25c-4.042-3.425-7.206-7.494-9.535-12.182c-1.974,2.438-4.023,4.755-6.175,6.911
			c-4.16,4.163-9.066,7.958-14.75,11.383c-5.681,3.427-11.867,5.16-18.549,5.17c-5.415,0-10.61-0.902-15.579-2.696
			c-4.968-1.803-9.349-4.464-13.146-7.985c-3.779-3.519-6.823-7.795-9.075-12.843c-2.262-5.057-3.395-10.749-3.399-17.076
			c-0.01-9.016,1.025-19.043,3.084-30.059c2.063-11.005,4.993-22.073,8.781-33.182c3.771-11.11,8.14-21.894,13.095-32.377
			c4.96-10.466,10.415-19.824,16.368-28.041c5.949-8.227,12.13-14.773,18.532-19.65c6.404-4.878,12.861-7.327,19.357-7.332
			c3.072-0.001,5.965,0.713,8.673,2.158c2.707,1.437,5.102,3.242,7.177,5.41c2.076,2.177,3.751,4.561,5.018,7.172
			c1.261,2.622,1.901,5.101,1.901,7.443c0,3.802-1.03,8.633-3.1,14.5c-2.067,5.873-4.825,12.191-8.244,18.958
			c-3.428,6.772-7.438,13.779-12.03,21c-4.605,7.229-9.375,14.226-14.338,20.999c-4.964,6.774-9.963,13.102-15.013,18.976
			c-5.056,5.88-9.833,10.714-14.34,14.501c-0.366,2.17-0.728,4.42-1.075,6.764c-0.365,1.992-0.638,4.207-0.814,6.646
			c-0.179,2.429-0.264,4.824-0.264,7.177c0.002,6.32,1.502,11.471,4.479,15.438c2.988,3.966,7.276,5.95,12.873,5.94
			c3.612,0,7.177-1.186,10.701-3.528c3.516-2.344,6.626-5.064,9.331-8.131c2.417-2.43,4.686-5.203,6.807-8.326
			c-0.024-0.568-0.045-1.125-0.045-1.7c-0.011-10.295,1.877-19.679,5.663-28.17c3.779-8.49,8.562-15.762,14.328-21.816
			c5.78-6.053,12.047-10.706,18.816-13.959c6.77-3.262,13.131-4.894,19.093-4.894c4.152-0.009,8.032,0.798,11.646,2.421
			c3.61,1.632,6.774,3.742,9.486,6.353c2.71,2.619,4.83,5.649,6.376,9.066c1.529,3.443,2.302,6.954,2.305,10.561
			c0.006,3.254-0.713,7.187-2.15,11.788c-1.442,4.611-3.833,8.979-7.172,13.145c-3.332,4.155-7.845,7.727-13.523,10.707
			c-5.688,2.987-12.779,4.48-21.262,4.489c-1.99,0-4.064-0.266-6.242-0.808c-1.253-0.18-2.604-0.445-4.056-0.814
			c0.013,8.129,2.359,14.346,7.057,18.689c4.697,4.327,10.306,6.49,16.802,6.482c6.319,0,12.088-1.322,17.335-3.941
			c5.229-2.618,9.648-5.468,13.26-8.542c3.163-2.636,5.979-5.572,8.471-8.792c0.81-6.507,2.429-12.964,4.901-19.386
			c3.695-9.572,8.521-18.201,14.476-25.886c5.949-7.675,12.62-13.857,20.021-18.561c7.403-4.705,14.798-7.057,22.204-7.066
			c5.419,0,10.024,0.67,13.812,2.018c3.793,1.356,6.868,2.841,9.212,4.464c2.718,1.993,4.885,4.062,6.504,6.226
			c1.988,0,4.116,0.223,6.368,0.669c2.259,0.455,4.338,1.177,6.235,2.164c1.893,0.996,3.472,2.301,4.743,3.914
			c1.257,1.631,1.9,3.615,1.897,5.959c0,1.992-0.807,5.245-2.43,9.762c-1.62,4.507-3.413,9.529-5.406,15.024
			c-1.978,5.521-3.776,11.213-5.398,17.076c-1.619,5.873-2.43,11.067-2.427,15.575c0.009,2.163,0.683,3.965,2.035,5.417
			c1.36,1.441,3.208,2.163,5.556,2.163c3.61,0,7.178-1.186,10.693-3.537c3.523-2.343,6.637-5.056,9.341-8.131
			c3.245-3.254,6.225-7.142,8.925-11.65c0.159-0.489,0.543-1.038,1.132-1.665c2.423-3.624,5.599-8.8,9.556-15.558
			c4.593-7.847,8.87-18.192,12.831-31.01c-1.807-1.263-3.343-2.886-4.61-4.877c-1.081-1.613-2.078-3.691-2.973-6.216
			c-0.916-2.542-1.366-5.512-1.366-8.946c0-2.704,0.485-5.28,1.476-7.711c0.997-2.454,2.301-4.566,3.924-6.369
			c1.628-1.812,3.332-3.254,5.144-4.345c1.806-1.082,3.52-1.631,5.138-1.631c1.813-0.009,3.705,0.498,5.693,1.495
			c1.991,0.986,3.79,2.162,5.413,3.52c1.636,1.348,2.983,2.885,4.073,4.592c1.091,1.718,1.637,3.203,1.627,4.465
			c0.004,3.615-0.581,6.594-1.752,8.937c-1.168,2.354-1.755,4.611-1.747,6.775c0,1.992,1.087,3.434,3.251,4.336
			c2.163,0.909,4.87,1.349,8.125,1.349c3.068-0.01,5.644-0.189,7.714-0.55c2.074-0.371,3.924-0.773,5.556-1.229
			c1.625-0.447,3.154-0.858,4.603-1.229c1.445-0.352,2.979-0.54,4.602-0.54c3.253,0,5.918,1.262,7.992,3.786
			c2.077,2.525,3.122,5.598,3.122,9.213c0.007,3.063-1.031,6.723-3.104,10.972c-2.074,4.241-4.366,8.895-6.895,13.943
			c-2.524,5.074-4.821,10.345-6.889,15.856c-2.07,5.513-3.105,10.965-3.101,16.39c0,3.065,0.819,5.41,2.445,7.04
			c1.62,1.606,3.783,2.421,6.496,2.421c3.615,0,7.183-1.176,10.697-3.528c3.516-2.343,6.638-5.057,9.337-8.131
			c2.4-2.403,4.645-5.15,6.743-8.241c0.057-0.274,0.095-0.55,0.151-0.842c1.713-8.387,3.735-16.518,6.079-24.374
			c2.332-7.855,4.721-15.118,7.156-21.807c2.437-6.679,4.455-11.927,6.082-15.713c1.429-3.434,3.868-5.15,7.299-5.159
			c1.991,0,4.605,0.808,7.854,2.431c3.263,1.622,6.959,5.683,11.122,12.174c3.786-3.245,8.02-6.138,12.721-8.672
			c3.966-2.172,8.482-4.163,13.533-5.967c5.053-1.812,10.467-2.721,16.249-2.721c2.894-0.01,5.723,0.711,8.534,2.154
			c2.795,1.45,5.28,3.297,7.447,5.546c2.177,2.251,3.89,4.731,5.152,7.443c1.271,2.704,1.905,5.418,1.905,8.122
			c0,4.155-0.76,8.535-2.288,13.137c-1.532,4.61-3.15,9.357-4.865,14.227c-1.711,4.876-3.333,9.804-4.858,14.767
			c-1.531,4.962-2.291,9.882-2.291,14.767c0.004,3.064,0.772,5.538,2.309,7.443c1.529,1.891,3.663,2.833,6.369,2.833
			c3.607-0.009,7.175-1.175,10.691-3.537c3.516-2.344,6.631-5.056,9.336-8.13c3.25-3.246,6.224-7.135,8.93-11.65
			c0.18-0.55,0.631-1.176,1.354-1.898c0.362-0.359,0.902-0.772,1.624-1.218c0.718-0.455,1.527-0.679,2.432-0.679
			c1.445,0,2.758,0.532,3.931,1.613c1.177,1.091,1.758,2.345,1.768,3.795C1065.392,427.853,1065.26,428.539,1064.994,429.165z"/>
		<path fill="#F7991C" d="M560.126,378.013c3.701-4.697,7.35-9.985,10.958-15.856c3.601-5.864,7.119-11.961,10.541-18.288
			c3.426-6.318,6.443-12.414,9.061-18.288c2.609-5.863,4.729-11.241,6.351-16.113c1.621-4.884,2.434-8.672,2.425-11.385
			c0-2.524-1.084-3.788-3.248-3.788c-2.534,0.009-5.822,2.81-9.878,8.4c-4.061,5.601-8.295,12.928-12.712,21.952
			c-4.419,9.032-8.794,19.146-13.108,30.341c-4.326,11.205-7.841,22.485-10.539,33.869
			C553.052,386.323,556.426,382.717,560.126,378.013z"/>
		<path fill="#F7991C" d="M751.461,374.321c-3.971,0-8.032,2.086-12.175,6.25c-4.153,4.155-7.898,9.255-11.229,15.308
			c-3.34,6.044-6.079,12.596-8.242,19.646c-2.164,7.03-3.24,13.366-3.236,18.946c0.009,8.139,2.632,12.2,7.867,12.184
			c3.251,0,6.989-2.163,11.23-6.508c4.236-4.328,8.254-9.658,12.047-15.988c3.779-6.317,6.979-12.963,9.602-19.916
			c2.598-6.945,3.905-13.042,3.902-18.28c0-3.981-0.959-6.901-2.852-8.799C756.476,375.265,754.174,374.313,751.461,374.321z"/>
	</g>
	<g>
		<path d="M674.629,215.708h-46.086c-1.924,0-3.074,1.156-3.074,3.076v128.26c0,1.923,1.15,3.075,3.074,3.075l18.818,0.188
			c2.113,0,3.074-1.151,3.074-3.065v-38.403l24.193-0.194c18.046-0.19,27.646-9.792,27.646-27.646v-37.637
			C702.274,225.312,692.675,215.708,674.629,215.708z M677.315,276.197c0,4.802-2.497,7.678-7.683,7.678l-19.197,0.193v-43.396
			l19.197-0.194c5.186,0,7.683,2.69,7.683,7.682V276.197z"/>
		<path d="M807.502,215.708h-19.196c-2.31,0-3.649,1.156-4.421,3.076l-21.508,49.348l-21.503-49.348
			c-0.772-1.92-2.111-3.076-4.417-3.076h-19.2c-2.88,0-4.225,1.921-3.074,4.417l35.138,79.689v46.466
			c0,2.49,1.346,3.839,3.845,3.839h18.433c2.495,0,3.842-1.349,3.842-3.839v-46.466l35.137-79.689
			C811.73,217.629,810.383,215.708,807.502,215.708z"/>
		<path d="M832.056,340.391c1.941-2.146,4.016-3.889,6.169-5.186c2.525-1.51,5.024-2.266,7.44-2.275c0.716,0,1.438,0.07,2.163,0.172
			v-62.283h1.344l18.047,76.037c0.579,2.111,1.924,3.264,4.228,3.264h11.329c2.306,0,3.646-1.152,4.224-3.264l18.052-76.037h1.344
			v75.461c0,2.49,1.344,3.839,3.838,3.839h17.857c2.493,0,3.841-1.349,3.841-3.839V219.55c0-2.496-1.348-3.842-3.841-3.842h-25.348
			c-2.302,0-3.646,1.156-4.221,3.267l-21.313,85.638l-21.315-85.638c-0.578-2.111-1.922-3.267-4.227-3.267h-25.349
			c-2.493,0-3.836,1.346-3.836,3.842v126.73c0,2.49,1.343,3.839,3.836,3.839h0.288c0.215-0.696,0.449-1.384,0.725-2.061
			C828.502,345.173,830.097,342.589,832.056,340.391z"/>
		<path d="M1007.013,267.169h18.05c1.919,0,3.07-1.15,3.07-3.071v-20.736c0-18.051-9.787-27.654-27.646-27.654H978.98
			c-18.052,0-27.844,9.604-27.844,27.654v79.11c0,18.047,9.792,27.646,27.844,27.646h21.506c17.859,0,27.646-9.6,27.646-27.646
			v-20.739c0-1.919-1.151-3.074-3.07-3.074h-18.05c-2.111,0-3.073,1.155-3.073,3.074v16.323c0,5.181-2.688,7.68-7.682,7.68h-12.289
			c-4.988,0-7.681-2.5-7.681-7.68v-69.702c0-4.992,2.499-7.681,7.681-7.681h12.289c4.993,0,7.682,2.689,7.682,7.681v15.744
			C1003.939,266.019,1004.901,267.169,1007.013,267.169z"/>
	</g>
</g>
</svg>
