<?xml version="1.0" encoding="utf-8"?>
<!-- Generator: Adobe Illustrator 16.0.0, SVG Export Plug-In . SVG Version: 6.00 Build 0)  -->
<!DOCTYPE svg PUBLIC "-//W3C//DTD SVG 1.1//EN" "http://www.w3.org/Graphics/SVG/1.1/DTD/svg11.dtd">
<svg version="1.1" id="Layer_1" xmlns="http://www.w3.org/2000/svg" xmlns:xlink="http://www.w3.org/1999/xlink" x="0px" y="0px"
	 width="1000px" height="1000px" viewBox="0 0 1000 1000" enable-background="new 0 0 1000 1000" xml:space="preserve">
<g>
	<path fill="#005FA6" d="M399.521,663.692c5.346-5.483,8.613-12.724,10.626-20.456c1.87-7.188,3.183-15.033,3.427-22.465
		c1.953-59.744-21.755-118.461-80.223-142.24c-41.359-16.824-99.659-8.005-118.117,36.932c-15.096,36.744-9.791,79.5,14.567,110.885
		c26.189,33.738,65.543,52.356,108.046,53.124c16.756,0.301,34.037-0.52,49.563-7.473
		C391.868,670.003,396.099,667.204,399.521,663.692z"/>
	<g>
		<path fill="#F7991C" d="M527.189,543.801c1.758-2.17,3.145-4.418,4.154-6.743c1.002-2.316,1.51-4.288,1.508-5.905
			c0-2.018-0.914-3.025-2.727-3.025c-2.119,0.002-4.191,0.864-6.205,2.58c-2.021,1.721-3.807,3.787-5.373,6.209
			c-1.563,2.43-2.85,5.005-3.854,7.726c-1.008,2.735-1.51,5.054-1.508,6.973c2.725-0.004,5.301-0.761,7.721-2.274
			C523.326,547.816,525.422,545.977,527.189,543.801z"/>
		<path fill="#F7991C" d="M778.77,398.927c-31.563-76.836-131.25-91.917-201.969-63.15
			c-99.98,40.664-140.516,141.065-137.178,243.219c0.415,12.709,2.661,26.127,5.861,38.414c3.441,13.225,9.026,25.604,18.17,34.982
			c5.852,6.004,13.084,10.79,20.707,14.202c26.549,11.891,56.096,13.295,84.75,12.775c72.676-1.313,139.967-33.146,184.75-90.841
			C795.514,534.869,804.58,461.757,778.77,398.927z M760.533,559.8c-0.152,0.355-0.326,0.731-0.529,1.136s-0.402,0.859-0.602,1.359
			c-2.219,3.543-4.691,6.67-7.412,9.404c-2.324,2.318-5.072,4.443-8.246,6.363c-3.18,1.916-6.639,2.881-10.373,2.885
			c-5.752,0.004-10.4-1.482-13.93-4.453c-3.543-2.975-5.309-6.586-5.316-10.824c0-3.129,0.4-6.132,1.205-9.009
			c0.805-2.88,1.688-5.683,2.643-8.408c0.953-2.724,1.84-5.321,2.645-7.798c0.807-2.477,1.207-4.873,1.207-7.194
			c0-0.704-0.305-1.286-0.912-1.739c-0.605-0.459-1.314-0.679-2.121-0.683c-2.322,0.004-4.818,1.091-7.494,3.263
			c-2.668,2.176-5.193,5.305-7.561,9.396c-2.369,4.091-4.332,9.04-5.891,14.845c-1.564,5.811-2.336,12.338-2.332,19.615
			c0,1.309-0.277,2.139-0.828,2.496c-0.555,0.35-1.389,0.529-2.5,0.529c-4.037,0.004-7.422-0.777-10.146-2.338
			c-2.73-1.557-4.092-3.555-4.094-5.977c0-0.309,0.02-0.627,0.025-0.938c-0.01,0.009-0.018,0.019-0.025,0.027
			c-2.318,2.328-5.064,4.445-8.244,6.371c-3.182,1.912-6.637,2.883-10.373,2.885c-2.928,0.002-5.553-0.402-7.873-1.207
			c-2.326-0.803-4.344-1.889-6.063-3.248c-1.719-1.363-3.027-2.953-3.941-4.768c-0.908-1.814-1.361-3.781-1.363-5.904
			c-0.002-3.328,0.498-6.459,1.504-9.389s2.088-5.604,3.25-8.029c1.156-2.424,2.242-4.566,3.246-6.439
			c1.008-1.863,1.514-3.408,1.514-4.618c0-0.808-0.482-1.415-1.441-1.812c-0.961-0.405-1.996-0.756-3.104-1.063
			c-1.313-0.297-2.828-0.547-4.545-0.75c-2.922,7.372-5.691,13.405-8.314,18.098c-2.613,4.686-4.725,8.192-6.334,10.509
			c-0.004,0.008-0.006,0.015-0.01,0.022c-2.221,3.541-4.691,6.668-7.414,9.396c-2.322,2.326-5.066,4.443-8.248,6.365
			c-3.178,1.92-6.635,2.885-10.367,2.887c-4.238,0.002-7.828-1.078-10.756-3.246c-2.93-2.168-4.65-5.371-5.154-9.611
			c-2.02,2.527-4.188,4.699-6.506,6.52c-2.021,1.619-4.289,3.08-6.813,4.395c-2.521,1.314-5.248,1.973-8.174,1.975
			c-2.02,0-3.963-0.375-5.828-1.129c-1.871-0.756-3.492-1.838-4.85-3.252c-1.365-1.412-2.451-3.074-3.264-4.99
			c-0.25-0.596-0.447-1.217-0.621-1.851c-0.723,0.688-1.471,1.358-2.256,2.003c-2.824,2.326-6.326,4.445-10.514,6.367
			c-4.189,1.92-9.16,2.885-14.912,2.889c-3.836,0.002-7.373-0.549-10.605-1.652c-3.23-1.109-6.006-2.648-8.33-4.613
			c-2.258-1.912-4.028-4.188-5.33-6.811c-1.104,1.362-2.25,2.66-3.453,3.867c-2.325,2.326-5.068,4.445-8.247,6.365
			c-3.176,1.914-6.634,2.883-10.37,2.885c-3.027,0.004-5.932-0.502-8.71-1.506c-2.777-1.008-5.227-2.494-7.35-4.461
			c-2.113-1.969-3.815-4.359-5.074-7.186c-1.265-2.824-1.898-6.006-1.9-9.543c-0.006-5.043,0.573-10.646,1.725-16.805
			c1.153-6.158,2.791-12.346,4.908-18.554c2.109-6.214,4.553-12.241,7.322-18.101c2.772-5.854,5.822-11.086,9.15-15.68
			c3.326-4.6,6.782-8.26,10.362-10.986c3.58-2.729,7.19-4.097,10.822-4.099c1.718-0.002,3.336,0.397,4.85,1.205
			c1.513,0.805,2.853,1.814,4.013,3.026c1.16,1.217,2.098,2.55,2.805,4.01c0.707,1.467,1.063,2.853,1.064,4.161
			c0,2.125-0.576,4.826-1.734,8.107c-1.158,3.282-2.697,6.815-4.609,10.6c-1.916,3.787-4.158,7.704-6.726,11.74
			c-2.573,4.041-5.242,7.956-8.016,11.74c-2.775,3.791-5.57,7.327-8.394,10.611c-2.826,3.285-5.498,5.988-8.018,8.107
			c-0.205,1.211-0.406,2.473-0.602,3.783c-0.204,1.111-0.356,2.35-0.454,3.715c-0.1,1.357-0.148,2.697-0.148,4.013
			c0.002,3.532,0.84,6.411,2.505,8.628c1.67,2.219,4.068,3.326,7.196,3.322c2.02,0,4.013-0.66,5.983-1.973
			c1.966-1.311,3.704-2.83,5.217-4.545c1.351-1.357,2.62-2.909,3.805-4.656c-0.014-0.315-0.025-0.631-0.025-0.951
			c-0.006-5.754,1.05-11,3.165-15.749c2.114-4.745,4.789-8.813,8.013-12.198c3.229-3.384,6.734-5.986,10.52-7.805
			c3.783-1.823,7.342-2.733,10.674-2.733c2.32-0.005,4.49,0.446,6.51,1.353c2.02,0.91,3.789,2.095,5.305,3.554
			c1.516,1.464,2.701,3.157,3.564,5.068c0.854,1.923,1.287,3.888,1.289,5.905c0.004,1.816-0.398,4.014-1.203,6.59
			c-0.805,2.575-2.143,5.021-4.008,7.35c-1.865,2.322-4.387,4.318-7.563,5.984c-3.18,1.668-7.145,2.506-11.887,2.512
			c-1.113-0.004-2.273-0.15-3.488-0.455c-0.703-0.098-1.457-0.249-2.27-0.454c0.006,4.544,1.32,8.022,3.947,10.45
			c2.625,2.416,5.76,3.627,9.393,3.623c3.533,0,6.76-0.738,9.691-2.205c2.924-1.463,5.395-3.055,7.412-4.775
			c1.77-1.475,3.344-3.115,4.736-4.916c0.453-3.636,1.359-7.248,2.742-10.837c2.064-5.351,4.764-10.177,8.092-14.47
			c3.326-4.291,7.057-7.75,11.195-10.381c4.139-2.63,8.271-3.944,12.414-3.949c3.029-0.002,5.604,0.375,7.721,1.129
			c2.121,0.758,3.84,1.588,5.15,2.495c1.52,1.111,2.73,2.27,3.637,3.479c1.111-0.002,2.301,0.125,3.561,0.376
			c1.264,0.251,2.424,0.655,3.486,1.208c1.057,0.555,1.941,1.287,2.65,2.191c0.705,0.908,1.064,2.018,1.061,3.33
			c0,1.114-0.451,2.93-1.357,5.455c-0.904,2.523-1.908,5.33-3.021,8.401c-1.105,3.085-2.113,6.268-3.02,9.549
			c-0.904,3.282-1.359,6.185-1.355,8.706c0.004,1.211,0.381,2.219,1.137,3.029c0.762,0.805,1.795,1.207,3.105,1.207
			c2.02,0,4.014-0.66,5.98-1.977c1.969-1.309,3.709-2.826,5.221-4.545c1.814-1.82,3.48-3.992,4.99-6.514
			c0.088-0.273,0.305-0.581,0.635-0.932c1.352-2.025,3.129-4.917,5.34-8.696c2.57-4.39,4.961-10.171,7.176-17.337
			c-1.012-0.705-1.871-1.615-2.578-2.729c-0.605-0.901-1.162-2.063-1.664-3.477c-0.51-1.418-0.764-3.08-0.764-4.998
			c0-1.512,0.273-2.953,0.828-4.313c0.555-1.37,1.285-2.552,2.191-3.563c0.91-1.009,1.865-1.817,2.877-2.427
			c1.01-0.604,1.967-0.91,2.873-0.912c1.012-0.004,2.07,0.277,3.182,0.833c1.113,0.556,2.119,1.21,3.027,1.968
			c0.912,0.756,1.668,1.613,2.277,2.569c0.607,0.962,0.914,1.793,0.908,2.499c0.004,2.018-0.324,3.685-0.979,4.997
			c-0.654,1.312-0.98,2.575-0.979,3.787c0.002,1.114,0.609,1.917,1.818,2.42c1.209,0.509,2.725,0.757,4.545,0.757
			c1.715-0.004,3.154-0.104,4.313-0.309c1.158-0.205,2.193-0.43,3.105-0.686c0.908-0.252,1.762-0.482,2.572-0.686
			c0.809-0.198,1.666-0.302,2.572-0.304c1.82-0.002,3.309,0.706,4.471,2.116c1.16,1.411,1.744,3.13,1.744,5.149
			c0.004,1.714-0.578,3.758-1.736,6.134c-1.16,2.373-2.439,4.974-3.854,7.799c-1.412,2.835-2.695,5.783-3.854,8.863
			c-1.156,3.082-1.734,6.129-1.732,9.164c0.002,1.715,0.459,3.025,1.367,3.936c0.906,0.9,2.117,1.355,3.631,1.355
			c2.023-0.002,4.016-0.658,5.982-1.973c1.965-1.313,3.709-2.828,5.221-4.547c1.34-1.343,2.596-2.88,3.77-4.605
			c0.031-0.158,0.053-0.312,0.086-0.471c0.957-4.692,2.086-9.238,3.396-13.632c1.303-4.39,2.641-8.452,4-12.191
			c1.363-3.734,2.494-6.667,3.402-8.784c0.799-1.918,2.164-2.881,4.08-2.883c1.113-0.002,2.574,0.451,4.393,1.359
			c1.824,0.905,3.891,3.176,6.217,6.807c2.119-1.816,4.484-3.434,7.113-4.851c2.217-1.212,4.74-2.325,7.566-3.337
			c2.824-1.01,5.852-1.52,9.084-1.521c1.617-0.002,3.199,0.402,4.771,1.208c1.563,0.81,2.951,1.843,4.164,3.099
			c1.217,1.26,2.174,2.646,2.879,4.162c0.711,1.512,1.066,3.029,1.066,4.54c0,2.325-0.424,4.772-1.279,7.345
			c-0.857,2.576-1.762,5.23-2.719,7.952c-0.959,2.728-1.865,5.481-2.719,8.26c-0.855,2.774-1.281,5.524-1.279,8.257
			c0.002,1.711,0.432,3.096,1.291,4.16c0.854,1.055,2.047,1.584,3.561,1.582c2.018-0.002,4.012-0.658,5.977-1.975
			c1.967-1.313,3.707-2.83,5.219-4.549c1.818-1.814,3.482-3.986,4.994-6.514c0.1-0.305,0.352-0.655,0.758-1.058
			c0.201-0.204,0.504-0.433,0.908-0.685c0.4-0.252,0.854-0.378,1.359-0.378c0.809-0.002,1.543,0.3,2.195,0.904
			c0.658,0.608,0.986,1.311,0.99,2.12C760.758,559.068,760.682,559.452,760.533,559.8z"/>
		<path fill="#F7991C" d="M478.267,531.203c2.068-2.627,4.108-5.585,6.126-8.867c2.014-3.278,3.979-6.686,5.894-10.225
			c1.915-3.532,3.602-6.941,5.065-10.225c1.459-3.279,2.645-6.285,3.551-9.01c0.905-2.73,1.36-4.848,1.356-6.364
			c0-1.411-0.606-2.118-1.816-2.118c-1.417,0.004-3.255,1.57-5.522,4.697c-2.271,3.131-4.638,7.227-7.108,12.275
			c-2.471,5.049-4.916,10.703-7.328,16.963c-2.418,6.264-4.384,12.57-5.892,18.934C474.311,535.851,476.197,533.831,478.267,531.203
			z"/>
		<path fill="#F7991C" d="M585.24,529.137c-2.221,0.003-4.492,1.17-6.809,3.494c-2.322,2.323-4.414,5.176-6.277,8.56
			c-1.867,3.382-3.398,7.044-4.609,10.981c-1.207,3.936-1.811,7.475-1.807,10.598c0.004,4.549,1.471,6.818,4.396,6.811
			c1.818,0,3.908-1.213,6.279-3.641c2.369-2.42,4.615-5.398,6.734-8.936c2.115-3.534,3.902-7.247,5.369-11.136
			c1.451-3.885,2.186-7.294,2.182-10.222c0-2.225-0.535-3.859-1.594-4.92C588.043,529.666,586.756,529.135,585.24,529.137z"/>
	</g>
	<g>
		<path d="M542.283,440.458h-25.766c-1.076,0-1.719,0.645-1.719,1.719v71.713c0,1.074,0.643,1.718,1.719,1.718l10.52,0.106
			c1.182,0,1.719-0.644,1.719-1.717v-21.472l13.527-0.107c10.09-0.106,15.457-5.475,15.457-15.458v-21.042
			C557.74,445.827,552.373,440.458,542.283,440.458z M543.785,474.276c0,2.685-1.396,4.294-4.295,4.294l-10.734,0.107v-24.263
			l10.734-0.107c2.898,0,4.295,1.503,4.295,4.295V474.276z"/>
		<path d="M616.572,440.458h-10.734c-1.289,0-2.039,0.645-2.471,1.719l-12.023,27.59l-12.023-27.59
			c-0.43-1.074-1.182-1.719-2.469-1.719h-10.736c-1.609,0-2.361,1.074-1.717,2.47l19.645,44.553v25.979
			c0,1.395,0.752,2.147,2.148,2.147h10.307c1.395,0,2.146-0.753,2.146-2.147v-25.979l19.646-44.553
			C618.936,441.532,618.184,440.458,616.572,440.458z"/>
		<path d="M630.301,510.169c1.084-1.2,2.242-2.173,3.449-2.9c1.412-0.842,2.807-1.267,4.158-1.271c0.4,0,0.805,0.038,1.209,0.098
			v-34.825h0.752l10.09,42.513c0.324,1.182,1.074,1.825,2.363,1.825h6.334c1.289,0,2.039-0.644,2.361-1.825l10.092-42.513h0.752
			v42.19c0,1.395,0.752,2.147,2.146,2.147h9.984c1.395,0,2.146-0.753,2.146-2.147v-70.855c0-1.396-0.752-2.147-2.146-2.147H669.82
			c-1.287,0-2.039,0.645-2.361,1.826l-11.916,47.88l-11.916-47.88c-0.324-1.181-1.074-1.826-2.363-1.826h-14.172
			c-1.395,0-2.145,0.752-2.145,2.147v70.855c0,1.395,0.75,2.147,2.145,2.147h0.16c0.119-0.39,0.252-0.774,0.404-1.151
			C628.313,512.84,629.203,511.396,630.301,510.169z"/>
		<path d="M728.117,469.23h10.092c1.072,0,1.717-0.644,1.717-1.717v-11.594c0-10.092-5.475-15.46-15.459-15.46h-12.023
			c-10.092,0-15.566,5.368-15.566,15.46v44.23c0,10.092,5.475,15.46,15.566,15.46h12.023c9.984,0,15.459-5.368,15.459-15.46v-11.595
			c0-1.072-0.645-1.718-1.717-1.718h-10.092c-1.182,0-1.719,0.646-1.719,1.718v9.126c0,2.898-1.502,4.295-4.295,4.295h-6.871
			c-2.789,0-4.293-1.396-4.293-4.295v-38.97c0-2.792,1.396-4.295,4.293-4.295h6.871c2.793,0,4.295,1.503,4.295,4.295v8.803
			C726.398,468.586,726.936,469.23,728.117,469.23z"/>
	</g>
</g>
</svg>
