<?xml version="1.0" encoding="utf-8"?>
<!-- Generator: Adobe Illustrator 16.0.0, SVG Export Plug-In . SVG Version: 6.00 Build 0)  -->
<!DOCTYPE svg PUBLIC "-//W3C//DTD SVG 1.1//EN" "http://www.w3.org/Graphics/SVG/1.1/DTD/svg11.dtd">
<svg version="1.1" id="Layer_1" xmlns="http://www.w3.org/2000/svg" xmlns:xlink="http://www.w3.org/1999/xlink" x="0px" y="0px"
	 width="260px" height="260px" viewBox="0 0 260 260" enable-background="new 0 0 260 260" xml:space="preserve">
<g>
	<path fill="#005FA6" d="M86.004,200.679c2.337-2.398,3.766-5.563,4.645-8.943c0.819-3.141,1.392-6.571,1.498-9.821
		c0.854-26.119-9.51-51.789-35.072-62.185c-18.082-7.355-43.568-3.498-51.639,16.146c-6.598,16.063-4.28,34.755,6.369,48.479
		c11.45,14.747,28.655,22.89,47.235,23.223c7.327,0.133,14.881-0.226,21.669-3.267C82.658,203.437,84.508,202.215,86.004,200.679z"
		/>
	<g>
		<path fill="#F7991C" d="M141.818,148.264c0.769-0.95,1.374-1.932,1.815-2.948c0.438-1.013,0.661-1.874,0.66-2.58
			c0-0.883-0.4-1.323-1.192-1.323c-0.927,0.002-1.832,0.376-2.712,1.128c-0.885,0.75-1.664,1.654-2.351,2.714
			c-0.684,1.061-1.245,2.189-1.686,3.377c-0.44,1.197-0.658,2.212-0.657,3.048c1.19,0,2.315-0.332,3.374-0.992
			C140.129,150.02,141.044,149.215,141.818,148.264z"/>
		<path fill="#F7991C" d="M251.804,84.928c-13.799-33.59-57.381-40.184-88.297-27.608c-43.709,17.777-61.431,61.67-59.971,106.33
			c0.18,5.558,1.163,11.423,2.562,16.795c1.505,5.78,3.946,11.193,7.943,15.293c2.558,2.626,5.72,4.718,9.053,6.21
			c11.607,5.197,24.524,5.812,37.051,5.587c31.772-0.577,61.19-14.493,80.769-39.715
			C259.124,144.359,263.088,112.397,251.804,84.928z M243.831,155.26c-0.066,0.155-0.142,0.318-0.231,0.494
			c-0.09,0.178-0.175,0.378-0.263,0.593c-0.97,1.553-2.051,2.918-3.241,4.115c-1.015,1.014-2.217,1.94-3.605,2.78
			s-2.901,1.261-4.534,1.261c-2.515,0.002-4.547-0.646-6.089-1.944c-1.549-1.303-2.322-2.881-2.324-4.732
			c0-1.367,0.174-2.683,0.527-3.939c0.351-1.261,0.737-2.483,1.153-3.677c0.418-1.19,0.806-2.325,1.158-3.407
			c0.351-1.082,0.526-2.133,0.526-3.146c0-0.309-0.134-0.562-0.399-0.763c-0.264-0.199-0.573-0.297-0.926-0.299
			c-1.015,0.002-2.107,0.48-3.277,1.427c-1.168,0.951-2.271,2.319-3.305,4.108c-1.036,1.789-1.894,3.953-2.576,6.49
			c-0.684,2.541-1.021,5.394-1.019,8.577c0,0.57-0.122,0.935-0.361,1.088c-0.245,0.153-0.608,0.234-1.094,0.234
			c-1.766,0-3.244-0.34-4.436-1.022c-1.194-0.683-1.791-1.557-1.791-2.615c0-0.133,0.009-0.273,0.011-0.408
			c-0.004,0.004-0.007,0.008-0.011,0.012c-1.013,1.019-2.214,1.943-3.604,2.785c-1.391,0.838-2.9,1.261-4.534,1.261
			c-1.28,0.002-2.429-0.177-3.442-0.526c-1.018-0.35-1.899-0.826-2.65-1.42c-0.752-0.596-1.324-1.292-1.724-2.084
			c-0.396-0.794-0.595-1.654-0.596-2.583c-0.001-1.455,0.218-2.823,0.657-4.104c0.44-1.279,0.912-2.449,1.421-3.51
			c0.505-1.06,0.98-1.998,1.418-2.815c0.441-0.815,0.663-1.49,0.663-2.02c0-0.354-0.211-0.618-0.631-0.792
			c-0.419-0.177-0.872-0.329-1.356-0.465c-0.573-0.129-1.236-0.237-1.986-0.329c-1.278,3.224-2.488,5.861-3.636,7.915
			c-1.142,2.047-2.065,3.58-2.769,4.593c-0.001,0.004-0.002,0.006-0.004,0.01c-0.972,1.548-2.052,2.917-3.241,4.107
			c-1.017,1.019-2.216,1.943-3.605,2.783c-1.391,0.84-2.9,1.261-4.533,1.263c-1.854,0-3.422-0.472-4.702-1.417
			c-1.279-0.95-2.032-2.349-2.253-4.205c-0.883,1.106-1.832,2.055-2.846,2.852c-0.882,0.707-1.873,1.346-2.978,1.921
			c-1.103,0.575-2.294,0.863-3.572,0.863c-0.885,0-1.733-0.164-2.55-0.495c-0.816-0.328-1.525-0.803-2.118-1.42
			c-0.598-0.62-1.073-1.345-1.429-2.182c-0.108-0.261-0.196-0.532-0.271-0.811c-0.316,0.302-0.643,0.594-0.986,0.876
			c-1.234,1.018-2.767,1.945-4.597,2.784c-1.832,0.839-4.004,1.261-6.52,1.263c-1.677,0-3.223-0.239-4.637-0.722
			c-1.411-0.484-2.625-1.157-3.642-2.016c-0.988-0.838-1.76-1.833-2.33-2.979c-0.482,0.597-0.983,1.163-1.51,1.688
			c-1.016,1.02-2.216,1.946-3.606,2.783c-1.388,0.838-2.899,1.261-4.532,1.263c-1.325,0-2.594-0.22-3.81-0.659
			c-1.213-0.44-2.285-1.09-3.213-1.95c-0.923-0.86-1.668-1.906-2.218-3.139c-0.553-1.238-0.83-2.63-0.831-4.177
			c-0.002-2.203,0.25-4.654,0.753-7.346c0.505-2.69,1.221-5.396,2.147-8.111c0.921-2.715,1.989-5.352,3.2-7.913
			c1.212-2.558,2.546-4.846,4.001-6.854c1.454-2.01,2.964-3.612,4.529-4.803c1.564-1.192,3.143-1.79,4.731-1.792
			c0.751,0,1.459,0.174,2.12,0.527c0.662,0.352,1.248,0.792,1.754,1.323c0.507,0.531,0.917,1.115,1.228,1.752
			c0.309,0.641,0.464,1.246,0.464,1.82c0,0.929-0.252,2.109-0.758,3.544c-0.506,1.436-1.18,2.98-2.014,4.634
			c-0.838,1.655-1.819,3.368-2.941,5.132c-1.126,1.768-2.292,3.479-3.504,5.135c-1.214,1.655-2.436,3.2-3.67,4.638
			c-1.235,1.436-2.403,2.618-3.505,3.544c-0.089,0.531-0.177,1.081-0.263,1.653c-0.088,0.487-0.155,1.028-0.198,1.623
			c-0.043,0.594-0.064,1.181-0.064,1.756c0,1.544,0.368,2.804,1.095,3.774c0.73,0.967,1.779,1.453,3.147,1.451
			c0.882,0,1.754-0.29,2.614-0.862c0.86-0.574,1.62-1.239,2.282-1.987c0.59-0.593,1.146-1.272,1.664-2.036
			c-0.006-0.139-0.011-0.274-0.011-0.415c-0.003-2.518,0.458-4.812,1.383-6.886c0.924-2.076,2.094-3.852,3.504-5.333
			c1.412-1.479,2.942-2.617,4.599-3.412c1.654-0.797,3.209-1.196,4.666-1.196c1.015-0.002,1.963,0.195,2.848,0.592
			c0.881,0.399,1.656,0.915,2.319,1.554c0.66,0.641,1.18,1.381,1.557,2.216c0.374,0.843,0.563,1.701,0.563,2.582
			c0.001,0.795-0.174,1.755-0.525,2.881c-0.353,1.126-0.938,2.193-1.753,3.212c-0.814,1.018-1.918,1.889-3.306,2.617
			c-1.391,0.731-3.123,1.097-5.197,1.099c-0.486,0-0.993-0.065-1.525-0.197c-0.306-0.045-0.636-0.11-0.991-0.201
			c0.003,1.989,0.577,3.508,1.725,4.569c1.148,1.058,2.52,1.587,4.107,1.585c1.544,0,2.955-0.324,4.236-0.964
			c1.279-0.641,2.358-1.336,3.24-2.088c0.774-0.644,1.464-1.36,2.072-2.15c0.197-1.59,0.592-3.168,1.197-4.737
			c0.904-2.339,2.083-4.448,3.538-6.326c1.454-1.877,3.086-3.388,4.894-4.537c1.811-1.151,3.617-1.727,5.427-1.729
			c1.325,0,2.451,0.164,3.377,0.493c0.927,0.333,1.679,0.694,2.251,1.092c0.665,0.488,1.195,0.991,1.59,1.522
			c0.485,0,1.007,0.053,1.557,0.163c0.552,0.111,1.061,0.288,1.523,0.528c0.463,0.243,0.85,0.563,1.16,0.957
			c0.307,0.399,0.464,0.883,0.463,1.457c0,0.488-0.197,1.281-0.594,2.385c-0.396,1.104-0.833,2.33-1.321,3.674
			c-0.482,1.349-0.922,2.739-1.318,4.173c-0.396,1.436-0.594,2.707-0.593,3.807c0.002,0.529,0.165,0.97,0.495,1.324
			c0.334,0.353,0.786,0.529,1.359,0.529c0.883,0,1.755-0.288,2.613-0.864c0.861-0.572,1.622-1.235,2.283-1.987
			c0.793-0.794,1.521-1.745,2.181-2.847c0.04-0.12,0.134-0.255,0.277-0.408c0.592-0.885,1.369-2.151,2.337-3.803
			c1.122-1.917,2.168-4.447,3.136-7.58c-0.442-0.309-0.818-0.705-1.127-1.19c-0.264-0.396-0.508-0.903-0.728-1.521
			c-0.223-0.622-0.335-1.347-0.335-2.187c0-0.66,0.12-1.291,0.362-1.884c0.243-0.602,0.563-1.118,0.959-1.559
			c0.397-0.442,0.814-0.795,1.257-1.062c0.441-0.265,0.86-0.397,1.257-0.397c0.442-0.003,0.905,0.12,1.392,0.363
			c0.484,0.241,0.925,0.529,1.322,0.862c0.4,0.329,0.729,0.704,0.996,1.121c0.267,0.419,0.4,0.783,0.398,1.092
			c0.001,0.883-0.143,1.611-0.43,2.184c-0.284,0.576-0.429,1.127-0.427,1.656c0,0.486,0.266,0.84,0.794,1.06
			c0.529,0.224,1.191,0.33,1.986,0.33c0.751-0.003,1.382-0.047,1.886-0.134c0.508-0.091,0.959-0.19,1.357-0.3
			c0.399-0.11,0.771-0.211,1.126-0.302c0.353-0.084,0.729-0.132,1.124-0.132c0.796,0,1.447,0.309,1.953,0.927
			c0.51,0.616,0.764,1.367,0.764,2.252c0.002,0.748-0.251,1.643-0.759,2.681c-0.507,1.036-1.066,2.174-1.686,3.407
			c-0.617,1.242-1.179,2.529-1.683,3.876c-0.507,1.348-0.759,2.683-0.758,4.008c0,0.748,0.2,1.322,0.598,1.72
			c0.396,0.393,0.925,0.592,1.587,0.592c0.885,0,1.756-0.286,2.615-0.862c0.859-0.572,1.622-1.235,2.282-1.987
			c0.587-0.588,1.136-1.258,1.649-2.014c0.013-0.067,0.021-0.135,0.035-0.207c0.418-2.051,0.913-4.036,1.485-5.957
			c0.571-1.919,1.155-3.696,1.75-5.33c0.596-1.633,1.09-2.914,1.486-3.841c0.35-0.839,0.946-1.259,1.783-1.262
			c0.488,0,1.127,0.198,1.92,0.595c0.799,0.396,1.701,1.388,2.72,2.975c0.926-0.791,1.959-1.499,3.108-2.117
			c0.97-0.532,2.075-1.02,3.309-1.461c1.234-0.442,2.557-0.664,3.971-0.664c0.708-0.002,1.4,0.175,2.087,0.526
			c0.684,0.355,1.291,0.806,1.82,1.356c0.531,0.55,0.95,1.156,1.26,1.818c0.311,0.661,0.465,1.324,0.465,1.985
			c0,1.017-0.186,2.086-0.559,3.211c-0.375,1.127-0.771,2.289-1.189,3.477c-0.418,1.193-0.814,2.398-1.188,3.609
			c-0.375,1.215-0.56,2.416-0.56,3.611c0.001,0.748,0.188,1.353,0.563,1.819c0.375,0.462,0.896,0.692,1.559,0.692
			c0.882-0.002,1.753-0.288,2.612-0.865c0.859-0.572,1.621-1.234,2.282-1.986c0.794-0.794,1.521-1.746,2.182-2.849
			c0.045-0.135,0.155-0.287,0.332-0.463c0.089-0.089,0.221-0.188,0.397-0.3c0.175-0.11,0.372-0.163,0.595-0.163
			c0.352,0,0.673,0.129,0.959,0.394c0.287,0.267,0.431,0.572,0.433,0.928C243.929,154.938,243.896,155.107,243.831,155.26z"/>
		<path fill="#F7991C" d="M120.429,142.757c0.905-1.149,1.797-2.442,2.678-3.877c0.881-1.434,1.741-2.924,2.577-4.47
			c0.837-1.545,1.576-3.033,2.215-4.47c0.637-1.434,1.156-2.749,1.551-3.939c0.397-1.194,0.596-2.12,0.594-2.782
			c0-0.618-0.265-0.925-0.793-0.925c-0.621,0.002-1.425,0.686-2.415,2.052c-0.992,1.369-2.027,3.161-3.107,5.366
			c-1.08,2.208-2.149,4.68-3.204,7.417c-1.057,2.738-1.917,5.495-2.576,8.279C118.7,144.788,119.524,143.906,120.429,142.757z"/>
		<path fill="#F7991C" d="M167.196,141.854c-0.971,0-1.963,0.509-2.977,1.527c-1.015,1.017-1.93,2.263-2.744,3.742
			c-0.816,1.476-1.486,3.076-2.015,4.801c-0.529,1.718-0.792,3.267-0.791,4.632c0.002,1.989,0.644,2.982,1.924,2.977
			c0.793,0,1.708-0.527,2.744-1.591c1.035-1.057,2.017-2.36,2.944-3.906c0.924-1.545,1.706-3.168,2.349-4.87
			c0.634-1.697,0.954-3.188,0.953-4.466c0-0.975-0.235-1.688-0.697-2.152C168.422,142.084,167.859,141.853,167.196,141.854z"/>
	</g>
	<g>
		<path d="M148.417,103.085h-11.265c-0.472,0-0.752,0.282-0.752,0.752v31.349c0,0.47,0.28,0.751,0.752,0.751l4.6,0.047
			c0.517,0,0.751-0.28,0.751-0.749v-9.387l5.914-0.047c4.411-0.047,6.757-2.394,6.757-6.759v-9.198
			C155.174,105.432,152.828,103.085,148.417,103.085z M149.073,117.87c0,1.173-0.61,1.876-1.879,1.876l-4.691,0.049v-10.608
			l4.691-0.046c1.269,0,1.879,0.656,1.879,1.877V117.87z"/>
		<path d="M180.895,103.085h-4.692c-0.564,0-0.892,0.282-1.082,0.752l-5.256,12.061l-5.255-12.061
			c-0.189-0.471-0.517-0.752-1.08-0.752h-4.693c-0.704,0-1.032,0.469-0.752,1.08l8.589,19.479v11.356
			c0,0.608,0.329,0.938,0.94,0.938h4.504c0.609,0,0.939-0.33,0.939-0.938v-11.356l8.59-19.479
			C181.929,103.554,181.599,103.085,180.895,103.085z"/>
		<path d="M186.896,133.561c0.474-0.524,0.981-0.952,1.507-1.269c0.617-0.368,1.229-0.554,1.819-0.556
			c0.174,0,0.352,0.018,0.527,0.043v-15.224h0.329l4.411,18.586c0.143,0.515,0.471,0.796,1.033,0.796h2.771
			c0.562,0,0.89-0.281,1.032-0.796l4.41-18.586h0.329v18.444c0,0.608,0.329,0.938,0.938,0.938h4.365c0.609,0,0.939-0.33,0.939-0.938
			v-30.976c0-0.61-0.33-0.938-0.939-0.938h-6.196c-0.563,0-0.892,0.282-1.031,0.798l-5.209,20.932l-5.211-20.932
			c-0.142-0.517-0.47-0.798-1.033-0.798h-6.196c-0.609,0-0.937,0.329-0.937,0.938v30.976c0,0.608,0.327,0.938,0.937,0.938h0.071
			c0.054-0.17,0.109-0.338,0.177-0.503C186.027,134.729,186.415,134.097,186.896,133.561z"/>
		<path d="M229.658,115.663h4.413c0.469,0,0.75-0.281,0.75-0.75v-5.069c0-4.413-2.392-6.759-6.757-6.759h-5.258
			c-4.411,0-6.805,2.347-6.805,6.759v19.336c0,4.412,2.394,6.757,6.805,6.757h5.258c4.365,0,6.757-2.346,6.757-6.757v-5.069
			c0-0.468-0.281-0.751-0.75-0.751h-4.413c-0.516,0-0.75,0.283-0.75,0.751v3.99c0,1.267-0.656,1.877-1.877,1.877h-3.004
			c-1.221,0-1.879-0.611-1.879-1.877v-17.037c0-1.22,0.611-1.878,1.879-1.878h3.004c1.221,0,1.877,0.658,1.877,1.878v3.849
			C228.908,115.382,229.143,115.663,229.658,115.663z"/>
	</g>
</g>
</svg>
